# xmcd
#
# Track frame offsets:
#	150
#	9137
#	25227
#	36517
#	77265
#	92927
#	99982
#	108372
#	143135
#	180467
#
# Disc length: 2923 seconds
#
# Revision: 10
# Processed by: cddbd v1.5.2PL0 Copyright (c) Steve Scherf et al.
# Submitted via: EasyCDDAExtractor 15.3.0.1
#
DISCID=6c0b690a
DTITLE=Alejandro Fernandez - En Vivo Desde El Palacio De Bellas Artes - CD 2
DYEAR=2002
DGENRE=Latin
TTITLE0=Ella
TTITLE1=De Un Mundo Raro
TTITLE2=Cuando El Destino
TTITLE3=Popurri Bravio (Tu, Solo Tu, Fallaste Corazon, Pelea De Gallos, Juan C
TTITLE3=harrasqueado, Cielo Rojo, No Volvere)
TTITLE4=Amaneci Entre Tus Brazos
TTITLE5=Paloma Querida
TTITLE6=Serenata Huasteca
TTITLE7=Popurri Vicente Fernandez (Las Llaves De Mi Alma, Por Tu Maldito Amor,
TTITLE7=Mujeres Divinas, De Que Manera Te Olvido)
TTITLE8=Popurri Juan Gabriel (Ya Lo Se Que Tu Te Vas, La Diferencia, Te Sigo A
TTITLE8=mando)
TTITLE9=Huapango
EXTD=
EXTT0=
EXTT1=
EXTT2=
EXTT3=
EXTT4=
EXTT5=
EXTT6=
EXTT7=
EXTT8=
EXTT9=
PLAYORDER=
